<svg width="300" height="300" viewBox="0 0 300 300" fill="none" xmlns="http://www.w3.org/2000/svg">
<path d="M149.871 5C72.7589 5 10 70 10 150C10 230 72.7589 295 149.871 295C226.985 295 289.743 229.94 289.743 150C289.743 70.06 226.985 5 149.871 5ZM67.5981 261.55L66.5659 260.71C57.3479 253.232 49.0939 244.557 42.0064 234.9L41.8714 234.74V234.53C41.8391 232.605 41.7103 230.682 41.4856 228.77V228.58C40.5644 215.377 40.5031 202.123 41.3023 188.91C41.8844 177.762 43.4669 166.693 46.0289 155.85C49.0001 144.02 53.1673 134.85 58.4534 128.53L61.6752 125.17C63.2157 123.758 64.8974 122.521 66.6913 121.48L67.6559 120.94L67.5981 261.55ZM226.221 266C203.763 281.927 177.191 290.457 149.981 290.478C122.77 290.5 96.1866 282.01 73.7043 266.12L73.4341 265.93L74.2638 116.85L74.6881 116.69C75.6818 116.316 76.6964 116.005 77.7268 115.76C79.4309 115.347 81.1759 115.143 82.9261 115.15C84.8951 115.165 86.8598 115.346 88.8006 115.69H88.8874H88.9549H89.1383C98.6399 117.44 109.01 122.81 118.357 130.79C121.499 133.47 124.455 136.378 127.203 139.49C133.739 146.896 139.137 155.301 143.206 164.41H156.711C160.753 155.328 166.089 146.927 172.54 139.49C175.123 136.527 177.898 133.75 180.846 131.18C190.231 122.99 200.813 117.48 210.643 115.71H210.981L211.116 115.64H211.203C213.116 115.318 215.051 115.147 216.99 115.13C218.733 115.134 220.471 115.339 222.17 115.74C223.201 115.985 224.215 116.296 225.21 116.67L225.633 116.83V117.3L226.463 265.8L226.221 266ZM74.0418 112.35V109C74.0418 78.53 80.6593 53.49 91.7331 42C96.1704 37.4 101.206 35.07 106.675 35.07C114.103 35.07 120.537 40.07 125.852 49.84C130.174 57.84 133.801 69.07 136.608 83.3L141.286 117.48C141.942 124.78 142.434 132.3 142.723 139.81C143.013 146.81 143.042 151.29 143.042 151.34V153.72L141.894 151.72C139.561 147.742 136.984 143.924 134.177 140.29C126.228 129.98 116.891 121.88 107.167 116.89C99.7788 113 91.6181 110.945 83.3313 110.89H82.8296C81.1923 110.912 79.5596 111.076 77.9486 111.38C76.9583 111.567 75.9679 111.8 74.9774 112.08L74.0418 112.35ZM156.788 153.84V151.46C156.788 151.46 156.788 146.96 157.106 139.93C157.424 132.42 157.916 124.93 158.543 117.6L163.251 83.39C166.068 69.16 169.685 57.89 174.006 49.93C179.321 40.15 185.775 35.18 193.183 35.16C198.671 35.16 203.698 37.49 208.155 42.09C219.228 53.55 225.846 78.59 225.846 109.09V112.47L224.881 112.19C223.891 111.91 222.9 111.677 221.91 111.49C220.298 111.198 218.666 111.034 217.03 111H216.44C208.161 111.068 200.01 113.121 192.623 117C182.881 122 173.533 130.09 165.614 140.4C162.815 144.04 160.238 147.857 157.897 151.83L156.788 153.84ZM258.393 228.53V228.72C258.305 229.28 258.141 231.72 258.055 234.2V234.41L257.94 234.57C250.846 244.302 242.568 253.042 233.311 260.57L232.28 261.41V120.87L233.245 121.41C240.74 125.68 246.75 134.01 251.023 146.14C254.446 155.8 256.81 167.86 258.113 182.05C259.391 197.512 259.486 213.053 258.393 228.53ZM21.0258 186C21.3151 160.43 26.3794 136.32 35.2541 118.12C43.2894 101.62 53.8039 91.26 64.1929 89.56L64.2604 86.56C56.2713 87.8492 48.7896 91.431 42.6624 96.9C36.6349 102.4 31.6891 109.055 28.0964 116.5C18.8649 134.79 16.7043 154.72 16.1929 162.45H14.91C14.5531 158.27 14.3698 154.1 14.3698 150.04C14.3408 72.61 75.1126 9.61 149.852 9.61C224.591 9.61 285.335 72.61 285.335 150.06C285.335 153.35 285.218 156.76 284.978 160.21H283.713C281.736 143.95 276.846 127.54 270.296 115.21C266.691 108.158 261.896 101.834 256.135 96.54C250.448 91.3828 243.505 87.9443 236.061 86.6L235.656 86.53L235.723 89.53C246.103 91.23 256.636 101.59 264.663 118.09C273.528 136.29 278.573 160.42 278.891 185.97C278.891 186.11 278.891 186.27 278.891 186.44C278.891 187.44 279.075 189.64 279.21 191.64V191.76V191.88C275.943 202.745 271.406 213.155 265.705 222.88L264.44 225.05L264.528 222.53C264.528 221.36 264.595 220.27 264.615 219.66C264.605 219.497 264.605 219.333 264.615 219.17C267.131 188.74 265 164.17 258.2 146.06C252.711 131.41 244.02 120.67 232.356 114.16L232.02 113.97V110.7C232.02 82.35 227.65 61.16 219.035 47.79C210.711 35 200.38 32.29 193.155 32.29C181.318 32.29 171.701 41.69 164.611 60.29C159.257 74.29 155.379 93.29 153.132 116.6C152.408 124.16 151.849 132.07 151.511 140.14V140.77H148.424V140.14C148.087 132.07 147.527 124.14 146.804 116.6C144.556 93.24 140.707 74.29 135.325 60.29C128.235 41.74 118.627 32.29 106.762 32.29C99.5178 32.29 89.1673 35 80.9003 47.88C72.2186 61.27 67.8971 82.44 67.8971 110.79V114.06L67.5594 114.25C55.9261 120.76 47.2154 131.49 41.7171 146.17C34.9646 164.25 32.7846 188.85 35.3022 219.25C35.3022 219.88 35.4373 221.51 35.5724 223.08L35.7942 225.83L34.3954 223.47C28.8646 214.16 24.4003 204.213 21.0933 193.83V193.74V193.65C21.0933 191.85 21.0933 189.57 21.0933 187.98V186.14" fill="#253978"/>
<path d="M84.8148 89.55C92.3537 90.3567 99.6106 92.9612 106.018 97.16C112.881 101.55 119.396 107.89 125.449 115.97C129.678 121.71 133.461 127.789 136.764 134.15C137.487 135.5 138.161 136.83 138.807 138.15H138.875C138.585 135.15 137.911 128.58 137.728 126.53L137.612 125.48C136.08 122.478 134.368 119.579 132.485 116.8C126.791 108.355 119.554 101.152 111.185 95.6C101.296 89.11 90.2507 85.49 79.9958 85.35L79.7067 89.29C80.8535 89.29 81.9331 89.29 83.0318 89.43L84.8148 89.55Z" fill="#253978"/>
<path d="M101.343 234.718V181.53L104.97 178.216L104.184 177C99.4279 181.151 94.4068 185.223 88 190.061V191.824L92.324 188.66V234.736H89.112V236.216H106.761V234.736H101.343V234.718Z" fill="#253978"/>
<path d="M111.862 232.929C114.889 235.573 118.842 236.957 123.66 236.957C125.986 237.028 128.302 236.627 130.468 235.778C132.634 234.931 134.605 233.653 136.262 232.021C137.909 230.404 139.204 228.462 140.065 226.32C140.926 224.18 141.335 221.883 141.265 219.577C141.265 212.873 137.524 207.341 130.04 202.981C135.335 200.761 137.982 197.041 137.982 191.771C138.034 190.077 137.712 188.391 137.04 186.836C136.367 185.279 135.36 183.889 134.091 182.764C131.364 180.367 127.82 179.105 124.19 179.239C119.698 179.239 116.115 180.578 113.397 183.231C111.977 184.551 110.851 186.154 110.091 187.937C109.331 189.719 108.954 191.64 108.985 193.578C108.985 199.154 111.668 203.581 117.033 206.859C111.926 210.15 108.832 214.083 107.749 218.66C107.452 219.928 107.301 221.226 107.299 222.529C107.288 223.792 107.439 225.051 107.749 226.275C108.401 228.863 109.838 231.187 111.862 232.929ZM115.63 188.713C115.587 187.638 115.779 186.567 116.192 185.572C116.605 184.579 117.229 183.686 118.021 182.958C119.724 181.467 121.936 180.688 124.198 180.781C125.613 180.74 127.02 180.994 128.331 181.524C129.642 182.056 130.828 182.852 131.814 183.866C132.807 184.881 133.585 186.085 134.102 187.407C134.619 188.729 134.864 190.141 134.823 191.559C134.823 196.601 132.802 200.117 128.725 202.135C125.905 200.91 123.239 199.358 120.783 197.508C117.342 194.917 115.63 191.991 115.63 188.713ZM112.621 213.531C113.914 211.116 115.919 209.155 118.365 207.917C124.378 211.025 128.399 213.692 130.429 215.919C132.519 218.306 133.61 221.406 133.473 224.574C133.473 228.011 132.688 230.664 131.082 232.576C130.254 233.537 129.216 234.293 128.048 234.788C126.881 235.283 125.615 235.504 124.348 235.432C120.166 235.432 116.795 234.198 114.262 231.774C111.729 229.351 110.476 226.055 110.476 222.009C110.454 219.047 111.192 216.128 112.621 213.531Z" fill="#253978"/>
<path d="M160.15 236.939C162.386 236.945 164.595 236.445 166.61 235.476C168.624 234.506 170.392 233.093 171.78 231.342C175.009 227.567 176.725 222.733 176.599 217.77C176.749 213.237 175.314 208.792 172.539 205.202C169.822 201.806 166.486 200.114 162.533 200.126C160.553 200.054 158.597 200.57 156.911 201.607C154.995 203.036 153.384 204.834 152.172 206.895L153.328 207.864C154.459 205.994 155.893 204.327 157.573 202.929C158.852 202.066 160.373 201.634 161.915 201.695C162.756 201.62 163.601 201.784 164.353 202.169C165.104 202.554 165.73 203.144 166.16 203.872C167.171 205.722 167.671 210.396 167.66 217.893C167.66 225.032 167.171 229.733 166.195 231.995C165.224 234.277 163.247 235.432 160.309 235.432C156.355 235.432 153.884 234.119 152.878 231.528C152.058 229.43 151.643 222.564 151.643 210.966C151.643 199.676 151.89 192.335 152.34 188.933C153.099 183.487 155.632 180.746 159.894 180.746C163.83 180.746 167.325 182.911 170.377 187.241V191.172H171.878L171.507 178.357H170.193V181.415C167.307 179.986 164.13 179.241 160.909 179.239C155.367 179.239 150.955 181.988 147.672 187.488C144.389 192.987 142.742 200.293 142.73 209.406C142.73 217.82 144.31 224.509 147.469 229.474C150.628 234.439 154.855 236.927 160.15 236.939Z" fill="#253978"/>
<path d="M208.27 208.208C206.32 206.135 204.065 204.372 201.582 202.981C204.776 201.642 206.999 199.773 208.27 197.35C209.127 195.484 209.63 193.476 209.752 191.427C209.682 189.572 209.175 187.761 208.27 186.139C207.604 184.869 206.706 183.733 205.624 182.79C202.896 180.393 199.352 179.131 195.722 179.265C191.25 179.265 187.654 180.596 184.929 183.257C183.511 184.578 182.384 186.182 181.625 187.964C180.864 189.745 180.487 191.667 180.516 193.604C180.516 199.18 183.2 203.607 188.565 206.886C182.093 211.063 178.858 216.287 178.858 222.556C178.801 224.518 179.181 226.47 179.968 228.27C180.754 230.069 181.931 231.672 183.412 232.964C186.438 235.608 190.392 236.992 195.21 236.992C197.535 237.064 199.851 236.663 202.018 235.814C204.183 234.966 206.154 233.687 207.811 232.056C207.953 231.915 208.103 231.748 208.261 231.607C208.261 231.607 213 226.381 213 220.15C213.009 212.05 208.27 208.208 208.27 208.208ZM187.163 188.713C187.12 187.638 187.312 186.567 187.724 185.572C188.137 184.579 188.762 183.686 189.553 182.958C191.259 181.474 193.469 180.696 195.73 180.781C197.145 180.74 198.552 180.994 199.863 181.524C201.174 182.056 202.361 182.852 203.346 183.866C204.338 184.881 205.117 186.085 205.634 187.407C206.151 188.729 206.397 190.141 206.355 191.559C206.355 196.601 204.317 200.126 200.24 202.135C197.416 200.916 194.751 199.362 192.298 197.508C188.873 194.917 187.17 191.991 187.17 188.713H187.163ZM202.649 232.532C201.824 233.491 200.79 234.248 199.625 234.744C198.461 235.239 197.197 235.46 195.934 235.388C191.75 235.388 188.379 234.154 185.847 231.73C183.314 229.307 182.035 226.037 182.035 221.965C181.995 219.007 182.726 216.088 184.153 213.496C185.452 211.085 187.455 209.126 189.898 207.882C195.907 210.984 199.949 213.663 201.961 215.884C204.052 218.271 205.142 221.37 205.004 224.539C205.041 228.011 204.273 230.681 202.649 232.532Z" fill="#253978"/>
<path d="M188.732 95.5698C180.34 101.113 173.08 108.313 167.365 116.76C165.481 119.539 163.769 122.438 162.237 125.44L162.121 126.49C161.852 129.13 161.244 135.22 160.975 138.13H161.042C161.717 136.78 162.391 135.45 163.085 134.13C166.401 127.782 170.201 121.719 174.449 116C179.796 108.581 186.375 102.211 193.879 97.1898C201.752 92.0092 210.888 89.2715 220.21 89.2998L219.892 85.3598C209.675 85.4498 198.63 89.0898 188.732 95.5698Z" fill="#253978"/>
<path d="M112.168 263.592H109.864V270H107.8V253.416H112.168C113.864 253.416 115.232 253.864 116.272 254.76C117.312 255.656 117.832 256.904 117.832 258.504C117.832 260.104 117.312 261.352 116.272 262.248C115.232 263.144 113.864 263.592 112.168 263.592ZM109.864 261.768H112.168C114.472 261.768 115.624 260.68 115.624 258.504C115.624 256.328 114.472 255.24 112.168 255.24H109.864V261.768ZM120.363 270V253.416H130.107L129.651 255.24H122.427V260.712H129.243V262.464H122.427V268.176H130.562V270H120.363ZM141.294 255.48C140.174 255.096 139.134 254.904 138.174 254.904C137.214 254.904 136.43 255.152 135.822 255.648C135.214 256.144 134.91 256.744 134.91 257.448C134.91 258.456 135.446 259.248 136.518 259.824L139.902 261.696C141.79 262.752 142.734 264.112 142.734 265.776C142.734 267.152 142.246 268.248 141.27 269.064C140.294 269.88 138.918 270.288 137.142 270.288C135.366 270.288 133.774 269.968 132.366 269.328L132.966 267.648C134.278 268.224 135.566 268.512 136.83 268.512C138.11 268.512 139.054 268.264 139.662 267.768C140.27 267.272 140.574 266.672 140.574 265.968C140.574 264.96 140.038 264.168 138.966 263.592L135.582 261.72C133.694 260.664 132.75 259.304 132.75 257.64C132.75 256.264 133.238 255.168 134.214 254.352C135.19 253.536 136.502 253.128 138.15 253.128C139.27 253.128 140.526 253.36 141.918 253.824L141.294 255.48ZM143.808 255.24V253.416H155.376V255.24H150.624V270H148.56V255.24H143.808ZM159.364 263.256V270H157.3V253.416H161.668C163.3 253.416 164.652 253.856 165.724 254.736C166.796 255.6 167.332 256.808 167.332 258.36C167.332 259.48 167.036 260.432 166.444 261.216C165.852 261.984 165.052 262.544 164.044 262.896C164.876 263.856 166.42 266.224 168.676 270H166.18C163.956 266.16 162.548 263.912 161.956 263.256H159.364ZM159.364 261.48H161.668C162.772 261.48 163.62 261.208 164.212 260.664C164.82 260.12 165.124 259.352 165.124 258.36C165.124 257.368 164.82 256.6 164.212 256.056C163.62 255.512 162.772 255.24 161.668 255.24H159.364V261.48ZM170.712 270V253.416H172.776V270H170.712ZM188.493 266.28V253.416H190.557V270H188.565L178.797 257.112H178.677V270H176.613V253.416H178.605L188.372 266.28H188.493Z" fill="#253978"/>
</svg>
